<?xml version="1.0" encoding="UTF-8"?><svg id="a" xmlns="http://www.w3.org/2000/svg" width="288.31" height="118.74" viewBox="0 0 288.31 118.74"><polygon points="88.07 32.64 106.35 32.64 106.35 36.76 92.74 36.76 92.74 46.3 105.14 46.3 105.14 50.41 92.74 50.41 92.74 61.17 106.35 61.17 106.35 65.28 88.07 65.28 88.07 32.64"/><path d="m141.64,37.55c-1.92-.89-4.01-1.35-6.12-1.35-2.62,0-5.71.93-5.71,4.35,0,6.26,14,4.81,14,15.57,0,7-5.38,9.72-11.92,9.72-2.29-.1-4.54-.55-6.69-1.35l.47-4.35c2.15.92,4.44,1.46,6.78,1.59,2.66,0,6.4-1.5,6.4-5.33,0-7.29-14-5.29-14-15.43,0-5.8,4.58-8.89,10.48-8.89,2.38,0,4.75.4,7,1.17l-.69,4.3Z"/><path d="m167.7,48.08h4.63c2.9,0,6.54-1.45,6.54-5.75s-4.3-5.61-7.2-5.61h-4l.03,11.36Zm-4.7-15.44h8.55c6.69,0,12.25,2.34,12.25,9.78s-5.65,9.82-11.55,9.82h-4.55v13h-4.7v-32.6Z"/><path d="m253,37.55c-1.92-.89-4.01-1.35-6.12-1.35-2.62,0-5.7.93-5.7,4.35,0,6.26,14,4.81,14,15.57,0,7-5.38,9.72-11.92,9.72-2.29-.1-4.54-.55-6.69-1.35l.47-4.35c2.15.92,4.44,1.46,6.78,1.59,2.67,0,6.41-1.5,6.41-5.33,0-7.29-14-5.29-14-15.43,0-5.8,4.58-8.89,10.47-8.89,2.38,0,4.75.4,7,1.17l-.7,4.3Z"/><polygon points="207.99 36.82 197.11 65.27 192.35 65.27 205.87 32.64 210.63 32.64 224.01 65.27 219.07 65.27 207.99 36.82"/><rect x="205.84" y="53.09" width="4.53" height="32.64" fill="#b40014"/><path d="m0,76.36h1.17l4.83,8.28h0v-8.28h.93v9.41h-1.26l-4.67-8.12h0v8.12H0v-9.41Z"/><path d="m13,84.67h0c-.43.8-1.27,1.28-2.18,1.26-2,0-2.27-1.32-2.27-1.94,0-2.31,2.45-2.41,4.24-2.41h.16v-.35c0-1.18-.42-1.77-1.57-1.77-.71-.01-1.4.19-2,.57v-.83c.63-.28,1.31-.44,2-.47,1.7,0,2.42.77,2.42,2.56v3c-.01.48,0,.96.06,1.44h-.86v-1.06Zm-.08-2.36h-.25c-1.47,0-3.22.14-3.22,1.65,0,.91.65,1.25,1.43,1.25,2,0,2-1.74,2-2.49l.04-.41Z"/><path d="m15.77,75.66h.85v4.42h0c.39-.82,1.23-1.34,2.14-1.32,1.85,0,2.35,1.23,2.35,2.93v4.11h-.85v-4.1c0-1.19-.23-2.21-1.63-2.21s-2,1.43-2,2.63v3.68h-.85v-10.14Z"/><path d="m31,84.67h0c-.44.8-1.28,1.28-2.19,1.26-2,0-2.26-1.32-2.26-1.94,0-2.31,2.45-2.41,4.23-2.41h.17v-.35c0-1.18-.42-1.77-1.57-1.77-.71-.01-1.4.19-2,.57v-.83c.63-.28,1.31-.44,2-.47,1.7,0,2.42.77,2.42,2.56v3c-.01.48,0,.96.06,1.44h-.86v-1.06Zm-.08-2.36h-.25c-1.47,0-3.22.14-3.22,1.65,0,.91.65,1.25,1.43,1.25,2,0,2-1.74,2-2.49l.04-.41Z"/><path d="m42.08,85.77v-4.57c0-1-.36-1.74-1.46-1.74-.93,0-1.84.79-1.84,2.51v3.8h-.86v-4.57c0-1-.36-1.74-1.45-1.74-.93,0-1.85.79-1.85,2.51v3.8h-.85v-5.26c0-.52,0-1.06-.05-1.62h.82v1.19h0c.35-.86,1.21-1.4,2.14-1.34.89-.06,1.68.58,1.82,1.46h0c.36-.9,1.23-1.48,2.2-1.46,1.16-.08,2.16.79,2.24,1.95,0,.13,0,.26,0,.39v4.73l-.85-.04Z"/><path d="m48.86,76.36h1.44l3.44,8.28,3.45-8.28h1.34v9.41h-.93v-8.48h0l-3.43,8.48h-.79l-3.54-8.48h0v8.48h-.93l-.05-9.41Z"/><path d="m65.37,85.56c-.64.24-1.32.37-2,.37-2.28,0-3.13-1.53-3.13-3.6s1.16-3.6,2.9-3.6c1.94,0,2.74,1.57,2.74,3.41v.44h-4.71c0,1.45.79,2.63,2.27,2.63.67-.02,1.34-.2,1.93-.52v.87Zm-.37-3.71c0-1.2-.49-2.39-1.75-2.39-1.2.13-2.08,1.19-2,2.39h3.75Z"/><path d="m67.5,80.51v-1.62h.82v1.19h0c.35-.91,1.25-1.48,2.22-1.39,1.7,0,2.35,1.13,2.35,2.64v4.4h-.89v-4.14c0-1.29-.46-2.13-1.63-2.13-1.55,0-2,1.36-2,2.51v3.8h-.87v-5.26Z"/><path d="m74.48,84.77c.55.28,1.17.43,1.79.44.81,0,1.52-.45,1.52-1.23,0-1.63-3.3-1.38-3.3-3.37,0-1.37,1.11-1.88,2.24-1.88.58.01,1.15.12,1.7.31l-.08.74c-.48-.2-1-.31-1.53-.32-.87,0-1.48.27-1.48,1.15,0,1.28,3.39,1.12,3.39,3.37,0,1.45-1.37,2-2.4,2-.66.02-1.31-.09-1.93-.32l.08-.89Z"/><path d="m84.73,79.81c-.46-.21-.96-.33-1.47-.35-1.41-.03-2.58,1.1-2.61,2.51,0,.12,0,.24.02.36-.15,1.43.89,2.72,2.32,2.87.06,0,.12.01.18.01.53-.01,1.06-.12,1.55-.32l.08.8c-.57.18-1.17.26-1.77.24-2.21,0-3.29-1.68-3.29-3.6-.15-1.83,1.21-3.44,3.05-3.59.12,0,.23-.01.35-.01.56,0,1.12.09,1.66.27l-.07.81Z"/><path d="m86.24,75.66h.85v4.42h0c.39-.82,1.23-1.34,2.14-1.32,1.85,0,2.35,1.23,2.35,2.93v4.11h-.85v-4.1c0-1.19-.23-2.21-1.63-2.21s-2,1.43-2,2.63v3.68h-.85v-10.14Z"/><path d="m94,84.64h1.09v1.13h-1.09v-1.13Z"/><path d="m101.22,76.36h1.17l4.79,8.28h0v-8.28h.93v9.41h-1.26l-4.7-8.12h0v8.12h-.93v-9.41Z"/><path d="m114.2,84.67h0c-.44.8-1.29,1.29-2.2,1.26-2,0-2.27-1.32-2.27-1.94,0-2.31,2.45-2.41,4.24-2.41h.16v-.35c0-1.18-.42-1.77-1.57-1.77-.71-.01-1.4.19-2,.57v-.83c.63-.28,1.31-.44,2-.47,1.7,0,2.42.77,2.42,2.56v3c-.01.48,0,.96.06,1.44h-.83v-1.06Zm-.08-2.36h-.25c-1.47,0-3.22.14-3.22,1.65,0,.91.65,1.25,1.43,1.25,2,0,2-1.74,2-2.49l.04-.41Z"/><path d="m117,75.66h.85v4.42h0c.39-.84,1.23-1.36,2.15-1.35,1.85,0,2.35,1.23,2.35,2.93v4.11h-.85v-4.1c0-1.19-.23-2.21-1.63-2.21s-2,1.43-2,2.63v3.68h-.87v-10.11Z"/><path d="m132.2,84.67h0c-.44.8-1.29,1.29-2.2,1.26-1.95,0-2.26-1.32-2.26-1.94,0-2.31,2.45-2.41,4.23-2.41h.17v-.35c0-1.18-.42-1.77-1.57-1.77-.71-.01-1.4.19-2,.57v-.83c.63-.28,1.31-.44,2-.47,1.7,0,2.42.77,2.42,2.56v3c-.01.48,0,.96.06,1.44h-.83l-.02-1.06Zm-.08-2.36h-.25c-1.47,0-3.22.14-3.22,1.65,0,.91.65,1.25,1.43,1.25,2,0,2-1.74,2-2.49l.04-.41Z"/><path d="m143.3,85.77v-4.57c0-1-.36-1.74-1.46-1.74-.93,0-1.84.79-1.84,2.51v3.8h-.86v-4.57c0-1-.36-1.74-1.45-1.74-.93,0-1.85.79-1.85,2.51v3.8h-.84v-5.26c0-.52,0-1.06-.05-1.62h.82v1.19h0c.35-.86,1.21-1.4,2.14-1.34.89-.06,1.68.58,1.82,1.46h0c.36-.9,1.23-1.48,2.2-1.46,1.16-.07,2.16.8,2.23,1.96,0,.13,0,.25,0,.38v4.73l-.85-.04Z"/><path d="m150.07,76.36h1.45l3.48,8.28,3.45-8.28h1.34v9.41h-.94v-8.48h0l-3.43,8.48h-.79l-3.63-8.48h0v8.48h-.93v-9.41Z"/><path d="m165.93,84.67h0c-.44.8-1.28,1.28-2.19,1.26-2,0-2.26-1.32-2.26-1.94,0-2.31,2.45-2.41,4.23-2.41h.17v-.35c0-1.18-.42-1.77-1.57-1.77-.71-.01-1.4.19-2,.57v-.83c.63-.28,1.31-.44,2-.47,1.7,0,2.42.77,2.42,2.56v3c-.01.48,0,.96.06,1.44h-.83l-.03-1.06Zm-.08-2.36h-.25c-1.47,0-3.22.14-3.22,1.65,0,.91.65,1.25,1.43,1.25,2,0,2-1.74,2-2.49l.04-.41Z"/><path d="m168.72,80.43c.01-.51,0-1.03-.05-1.54h.85v1.32h0c.22-.82.93-1.41,1.77-1.48.2,0,.4.03.59.08v.89c-.2-.05-.41-.08-.62-.08-1.35,0-1.71,1.51-1.71,2.75v3.4h-.85l.02-5.34Z"/><path d="m173.21,75.66h.85v6.05l3.08-2.82h1.09l-3.36,3,3.77,3.83h-1.18l-3.4-3.53v3.53h-.85v-10.06Z"/><path d="m182.93,79.62h-1.57v4.46c0,.62.23,1.14.92,1.14.27,0,.54-.06.78-.17l.06.7c-.32.12-.66.19-1,.19-1.51,0-1.57-1-1.57-2.29v-4h-1.35v-.73h1.35v-1.69l.85-.29v2h1.57l-.04.68Z"/><path d="m184.71,84.64h1.09v1.13h-1.09v-1.13Z"/></svg>